<svg width="94" height="10" viewBox="0 0 94 10" fill="none" xmlns="http://www.w3.org/2000/svg">
<path d="M-4.43608e-05 1.49148V0.553977H6.54541V1.49148H3.80109V9.28125H2.74427V1.49148H-4.43608e-05ZM9.64577 5.34375V9.28125H8.64008V0.553977H9.64577V3.75852H9.73099C9.8844 3.42045 10.1145 3.15199 10.4213 2.95312C10.731 2.75142 11.1429 2.65057 11.6571 2.65057C12.1032 2.65057 12.4938 2.74006 12.829 2.91903C13.1642 3.09517 13.4242 3.36648 13.6088 3.73295C13.7963 4.09659 13.8901 4.55966 13.8901 5.12216V9.28125H12.8844V5.19034C12.8844 4.67045 12.7495 4.26847 12.4796 3.98438C12.2125 3.69744 11.8418 3.55398 11.3674 3.55398C11.0378 3.55398 10.7424 3.62358 10.481 3.76278C10.2225 3.90199 10.0179 4.10511 9.86736 4.37216C9.71963 4.6392 9.64577 4.96307 9.64577 5.34375ZM19.0742 9.41761C18.4436 9.41761 17.8995 9.27841 17.4421 9C16.9876 8.71875 16.6367 8.3267 16.3896 7.82386C16.1453 7.31818 16.0231 6.73011 16.0231 6.05966C16.0231 5.3892 16.1453 4.7983 16.3896 4.28693C16.6367 3.77273 16.9805 3.37216 17.4208 3.08523C17.864 2.79545 18.3811 2.65057 18.972 2.65057C19.3129 2.65057 19.6495 2.70739 19.9819 2.82102C20.3143 2.93466 20.6169 3.11932 20.8896 3.375C21.1623 3.62784 21.3796 3.96307 21.5416 4.38068C21.7035 4.7983 21.7845 5.3125 21.7845 5.9233V6.34943H16.739V5.48011H20.7617C20.7617 5.1108 20.6879 4.78125 20.5402 4.49148C20.3953 4.2017 20.1879 3.97301 19.918 3.8054C19.6509 3.63778 19.3356 3.55398 18.972 3.55398C18.5714 3.55398 18.2248 3.65341 17.9322 3.85227C17.6424 4.0483 17.4194 4.30398 17.2632 4.61932C17.1069 4.93466 17.0288 5.27273 17.0288 5.63352V6.21307C17.0288 6.70739 17.114 7.12642 17.2845 7.47017C17.4578 7.81108 17.6978 8.07102 18.0046 8.25C18.3115 8.42614 18.668 8.5142 19.0742 8.5142C19.3384 8.5142 19.5771 8.47727 19.7902 8.40341C20.0061 8.3267 20.1921 8.21307 20.3484 8.0625C20.5046 7.90909 20.6254 7.71875 20.7106 7.49148L21.6822 7.7642C21.5799 8.09375 21.4081 8.38352 21.1666 8.63352C20.9251 8.88068 20.6268 9.07386 20.2717 9.21307C19.9166 9.34943 19.5174 9.41761 19.0742 9.41761ZM28.3836 0.553977L30.9745 7.90057H31.0768L33.6677 0.553977H34.7757L31.5711 9.28125H30.4802L27.2757 0.553977H28.3836ZM37.9154 9.43466C37.5007 9.43466 37.1242 9.35653 36.7862 9.20028C36.4481 9.04119 36.1796 8.8125 35.9808 8.5142C35.7819 8.21307 35.6825 7.84943 35.6825 7.4233C35.6825 7.0483 35.7563 6.74432 35.9041 6.51136C36.0518 6.27557 36.2492 6.09091 36.4964 5.95739C36.7436 5.82386 37.0163 5.72443 37.3146 5.65909C37.6157 5.59091 37.9183 5.53693 38.2223 5.49716C38.62 5.44602 38.9424 5.40767 39.1896 5.3821C39.4396 5.35369 39.6214 5.30682 39.735 5.24148C39.8515 5.17614 39.9098 5.0625 39.9098 4.90057V4.86648C39.9098 4.44602 39.7947 4.11932 39.5646 3.88636C39.3373 3.65341 38.9921 3.53693 38.5291 3.53693C38.049 3.53693 37.6725 3.64205 37.3998 3.85227C37.1271 4.0625 36.9353 4.28693 36.8245 4.52557L35.87 4.18466C36.0404 3.78693 36.2677 3.47727 36.5518 3.25568C36.8387 3.03125 37.1512 2.875 37.4893 2.78693C37.8302 2.69602 38.1654 2.65057 38.495 2.65057C38.7052 2.65057 38.9467 2.67614 39.2194 2.72727C39.495 2.77557 39.7606 2.87642 40.0163 3.02983C40.2748 3.18324 40.4893 3.41477 40.6598 3.72443C40.8302 4.03409 40.9154 4.44886 40.9154 4.96875V9.28125H39.9098V8.39489H39.8586C39.7904 8.53693 39.6768 8.68892 39.5177 8.85085C39.3586 9.01278 39.147 9.15057 38.8828 9.2642C38.6186 9.37784 38.2961 9.43466 37.9154 9.43466ZM38.0688 8.53125C38.4666 8.53125 38.8018 8.45312 39.0745 8.29688C39.3501 8.14062 39.5575 7.93892 39.6967 7.69176C39.8387 7.4446 39.9098 7.18466 39.9098 6.91193V5.99148C39.8671 6.04261 39.7734 6.08949 39.6285 6.1321C39.4865 6.17187 39.3217 6.20739 39.1342 6.23864C38.9495 6.26705 38.7691 6.29261 38.593 6.31534C38.4197 6.33523 38.2791 6.35227 38.1711 6.36648C37.9098 6.40057 37.6654 6.45597 37.4382 6.53267C37.2137 6.60653 37.0319 6.71875 36.8927 6.86932C36.7563 7.01705 36.6882 7.21875 36.6882 7.47443C36.6882 7.82386 36.8174 8.08807 37.076 8.26705C37.3373 8.44318 37.6683 8.53125 38.0688 8.53125ZM43.351 9.28125V2.7358H44.3226V3.72443H44.3908C44.5101 3.40057 44.726 3.13778 45.0385 2.93608C45.351 2.73437 45.7033 2.63352 46.0953 2.63352C46.1692 2.63352 46.2615 2.63494 46.3723 2.63778C46.4831 2.64062 46.5669 2.64489 46.6237 2.65057V3.6733C46.5897 3.66477 46.5115 3.65199 46.3894 3.63494C46.2701 3.61506 46.1436 3.60511 46.0101 3.60511C45.6919 3.60511 45.4078 3.67187 45.1578 3.8054C44.9107 3.93608 44.7147 4.1179 44.5698 4.35085C44.4277 4.58097 44.3567 4.84375 44.3567 5.1392V9.28125H43.351ZM48.4159 9.28125V2.7358H49.4215V9.28125H48.4159ZM48.9272 1.64489C48.7312 1.64489 48.5622 1.57812 48.4201 1.4446C48.2809 1.31108 48.2113 1.15057 48.2113 0.963068C48.2113 0.775568 48.2809 0.615057 48.4201 0.481534C48.5622 0.348011 48.7312 0.28125 48.9272 0.28125C49.1233 0.28125 49.2909 0.348011 49.4301 0.481534C49.5721 0.615057 49.6431 0.775568 49.6431 0.963068C49.6431 1.15057 49.5721 1.31108 49.4301 1.4446C49.2909 1.57812 49.1233 1.64489 48.9272 1.64489ZM53.7897 9.43466C53.3749 9.43466 52.9985 9.35653 52.6604 9.20028C52.3223 9.04119 52.0539 8.8125 51.855 8.5142C51.6561 8.21307 51.5567 7.84943 51.5567 7.4233C51.5567 7.0483 51.6306 6.74432 51.7783 6.51136C51.926 6.27557 52.1235 6.09091 52.3706 5.95739C52.6178 5.82386 52.8905 5.72443 53.1888 5.65909C53.4899 5.59091 53.7925 5.53693 54.0965 5.49716C54.4942 5.44602 54.8166 5.40767 55.0638 5.3821C55.3138 5.35369 55.4956 5.30682 55.6093 5.24148C55.7257 5.17614 55.784 5.0625 55.784 4.90057V4.86648C55.784 4.44602 55.6689 4.11932 55.4388 3.88636C55.2115 3.65341 54.8664 3.53693 54.4033 3.53693C53.9232 3.53693 53.5468 3.64205 53.274 3.85227C53.0013 4.0625 52.8095 4.28693 52.6987 4.52557L51.7442 4.18466C51.9147 3.78693 52.1419 3.47727 52.426 3.25568C52.713 3.03125 53.0255 2.875 53.3635 2.78693C53.7044 2.69602 54.0397 2.65057 54.3692 2.65057C54.5794 2.65057 54.8209 2.67614 55.0936 2.72727C55.3692 2.77557 55.6348 2.87642 55.8905 3.02983C56.149 3.18324 56.3635 3.41477 56.534 3.72443C56.7044 4.03409 56.7897 4.44886 56.7897 4.96875V9.28125H55.784V8.39489H55.7328C55.6647 8.53693 55.551 8.68892 55.3919 8.85085C55.2328 9.01278 55.0212 9.15057 54.757 9.2642C54.4928 9.37784 54.1703 9.43466 53.7897 9.43466ZM53.9431 8.53125C54.3408 8.53125 54.676 8.45312 54.9487 8.29688C55.2243 8.14062 55.4317 7.93892 55.5709 7.69176C55.713 7.4446 55.784 7.18466 55.784 6.91193V5.99148C55.7414 6.04261 55.6476 6.08949 55.5027 6.1321C55.3607 6.17187 55.1959 6.20739 55.0084 6.23864C54.8237 6.26705 54.6433 6.29261 54.4672 6.31534C54.2939 6.33523 54.1533 6.35227 54.0453 6.36648C53.784 6.40057 53.5397 6.45597 53.3124 6.53267C53.088 6.60653 52.9061 6.71875 52.7669 6.86932C52.6306 7.01705 52.5624 7.21875 52.5624 7.47443C52.5624 7.82386 52.6916 8.08807 52.9502 8.26705C53.2115 8.44318 53.5425 8.53125 53.9431 8.53125ZM59.3616 9.28125V0.553977H60.3673V3.77557H60.4525C60.5264 3.66193 60.6287 3.51705 60.7593 3.34091C60.8929 3.16193 61.0832 3.00284 61.3304 2.86364C61.5804 2.72159 61.9184 2.65057 62.3446 2.65057C62.8957 2.65057 63.3815 2.78835 63.8019 3.06392C64.2224 3.33949 64.5505 3.73011 64.7863 4.2358C65.0221 4.74148 65.14 5.33807 65.14 6.02557C65.14 6.71875 65.0221 7.3196 64.7863 7.82812C64.5505 8.33381 64.2238 8.72585 63.8062 9.00426C63.3886 9.27983 62.9071 9.41761 62.3616 9.41761C61.9412 9.41761 61.6045 9.34801 61.3517 9.20881C61.0988 9.06676 60.9042 8.90625 60.7679 8.72727C60.6315 8.54545 60.5264 8.39489 60.4525 8.27557H60.3332V9.28125H59.3616ZM60.3502 6.00852C60.3502 6.50284 60.4227 6.93892 60.5676 7.31676C60.7125 7.69176 60.9241 7.9858 61.2025 8.19886C61.4809 8.40909 61.8218 8.5142 62.2252 8.5142C62.6457 8.5142 62.9965 8.40341 63.2778 8.18182C63.5619 7.95739 63.775 7.65625 63.917 7.27841C64.0619 6.89773 64.1343 6.47443 64.1343 6.00852C64.1343 5.5483 64.0633 5.13352 63.9213 4.7642C63.7821 4.39205 63.5704 4.09801 63.2863 3.8821C63.0051 3.66335 62.6514 3.55398 62.2252 3.55398C61.8162 3.55398 61.4724 3.65767 61.194 3.86506C60.9156 4.0696 60.7054 4.35653 60.5633 4.72585C60.4213 5.09233 60.3502 5.51989 60.3502 6.00852ZM68.284 0.553977V9.28125H67.2784V0.553977H68.284ZM73.4703 9.41761C72.8397 9.41761 72.2956 9.27841 71.8382 9C71.3837 8.71875 71.0328 8.3267 70.7857 7.82386C70.5414 7.31818 70.4192 6.73011 70.4192 6.05966C70.4192 5.3892 70.5414 4.7983 70.7857 4.28693C70.5414 3.77273 71.3766 3.37216 71.8169 3.08523C72.2601 2.79545 72.7772 2.65057 73.3681 2.65057C73.709 2.65057 74.0456 2.70739 74.378 2.82102C74.7104 2.93466 75.013 3.11932 75.2857 3.375C75.5584 3.62784 75.7757 3.96307 75.9377 4.38068C76.0996 4.7983 76.1806 5.3125 76.1806 5.9233V6.34943H71.1351V5.48011H75.1578C75.1578 5.1108 75.084 4.78125 74.9362 4.49148C74.7914 4.2017 74.584 3.97301 74.3141 3.8054C74.047 3.63778 73.7317 3.55398 73.3681 3.55398C72.9675 3.55398 72.6209 3.65341 72.3283 3.85227C72.0385 4.0483 71.8155 4.30398 71.6593 4.61932C71.503 4.93466 71.4249 5.27273 71.4249 5.63352V6.21307C71.4249 6.70739 71.5101 7.12642 71.6806 7.47017C71.8539 7.81108 72.0939 8.07102 72.4007 8.25C72.7076 8.42614 73.0641 8.5142 73.4703 8.5142C73.7345 8.5142 73.9732 8.47727 74.1862 8.40341C74.4022 8.3267 74.5882 8.21307 74.7445 8.0625C74.9007 7.90909 75.0215 7.71875 75.1067 7.49148L76.0783 7.7642C75.976 8.09375 75.8041 8.38352 75.5627 8.63352C75.3212 8.88068 75.0229 9.07386 74.6678 9.21307C74.3127 9.34943 73.9135 9.41761 73.4703 9.41761Z" fill="black"/>
<path d="M81.3445 3.28125V2.5142C81.3445 2.28125 81.3857 2.03409 81.4681 1.77273C81.5533 1.50852 81.6754 1.25426 81.8345 1.00994C81.9965 0.762784 82.1911 0.548295 82.4183 0.366477L82.9638 0.809659C82.7848 1.06534 82.6286 1.33239 82.4951 1.6108C82.3644 1.88636 82.299 2.18182 82.299 2.49716V3.28125H81.3445ZM91.6868 1.02539C91.6282 1.18945 91.5989 1.42969 91.5989 1.74609C91.5989 1.86328 91.6028 2.03711 91.6106 2.26758C91.6185 2.49805 91.6224 2.67188 91.6224 2.78906C91.6224 3.17969 91.5872 3.76172 91.5169 4.53516C91.4505 5.30859 91.4173 5.89062 91.4173 6.28125C91.4173 6.57812 91.4388 7.02344 91.4817 7.61719C91.5247 8.21094 91.5462 8.6582 91.5462 8.95898C91.5462 9.11914 91.4915 9.25391 91.3821 9.36328C91.2767 9.47266 91.1438 9.52734 90.9837 9.52734C90.8274 9.52734 90.6946 9.47266 90.5853 9.36328C90.4759 9.25391 90.4212 9.11914 90.4212 8.95898C90.4212 8.6582 90.3997 8.21094 90.3567 7.61719C90.3138 7.02344 90.2923 6.57812 90.2923 6.28125C90.2923 5.99609 90.302 5.70703 90.3216 5.41406C89.6536 5.42578 88.8274 5.52539 87.8431 5.71289L85.3821 6.19336C85.3821 6.54492 85.347 7.04492 85.2767 7.69336C85.2063 8.33789 85.1712 8.83789 85.1712 9.19336C85.1712 9.35352 85.1165 9.48828 85.0071 9.59766C84.9017 9.71094 84.7688 9.76758 84.6087 9.76758C84.4485 9.76758 84.3138 9.71094 84.2044 9.59766C84.0989 9.48828 84.0462 9.35352 84.0462 9.19336C84.0462 8.7793 84.0794 8.16211 84.1458 7.3418C84.2161 6.51758 84.2513 5.89844 84.2513 5.48438C84.2513 5.26953 84.2435 4.94531 84.2278 4.51172C84.2122 4.07812 84.2044 3.75195 84.2044 3.5332C84.2044 3.22461 84.2239 2.76172 84.263 2.14453C84.302 1.52344 84.3216 1.05859 84.3216 0.75C84.3216 0.585938 84.3743 0.449219 84.4798 0.339844C84.5892 0.230469 84.7239 0.175781 84.8841 0.175781C85.0442 0.175781 85.177 0.230469 85.2825 0.339844C85.3919 0.449219 85.4466 0.585938 85.4466 0.75C85.4466 1.0625 85.4251 1.53125 85.3821 2.15625C85.3431 2.77734 85.3235 3.24414 85.3235 3.55664L85.3587 5.03906L87.8724 4.56445C88.8763 4.37695 89.722 4.2793 90.4095 4.27148C90.4524 3.71289 90.4739 2.87109 90.4739 1.74609C90.4739 1.44922 90.5228 1.14844 90.6204 0.84375C90.7493 0.425781 90.931 0.216797 91.1653 0.216797C91.3138 0.216797 91.4466 0.271484 91.5638 0.380859C91.681 0.486328 91.7395 0.621094 91.7395 0.785156C91.7395 0.84375 91.722 0.923828 91.6868 1.02539ZM93.1868 2.87109C92.886 2.87109 92.7298 2.69141 92.7181 2.33203C92.7142 2.19141 92.7591 1.91016 92.8528 1.48828L93.0755 0.462891C93.1302 0.154297 93.2786 0 93.5208 0C93.6614 0 93.7747 0.0527344 93.8606 0.158203C93.9505 0.263672 93.9954 0.388672 93.9954 0.533203C94.0032 0.861328 93.8997 1.45508 93.6849 2.31445C93.5911 2.68555 93.4251 2.87109 93.1868 2.87109Z" fill="#4469B3"/>
</svg>
